<?xml version="1.0" encoding="utf-8"?>

<!-- The icon can be used freely in both personal and commercial projects with no attribution required, but always appreciated. 
You may NOT sub-license, resell, rent, redistribute or otherwise transfer the icon without express written permission from iconmonstr.com -->

<!DOCTYPE svg PUBLIC "-//W3C//DTD SVG 1.1//EN" "http://www.w3.org/Graphics/SVG/1.1/DTD/svg11.dtd">
<svg version="1.1" xmlns="http://www.w3.org/2000/svg" xmlns:xlink="http://www.w3.org/1999/xlink" x="0px" y="0px"
	 width="512px" height="512px" viewBox="0 0 512 512" enable-background="new 0 0 512 512" xml:space="preserve">
<path id="youtube-icon" d="M129.861,50h24.735l16.933,63.551L187.265,50h24.951l-28.58,94.504v64.486h-24.558v-64.486L129.861,50z
	 M211.104,179.739c0,20.668,10.8,31.428,31.949,31.428c17.538,0,31.35-11.729,31.35-31.428V122.25
	c0-18.357-13.674-31.509-31.35-31.509c-19.204,0-31.949,12.691-31.949,31.509V179.739z M233.544,124.184
	c0-6.419,2.956-11.184,9.081-11.184c6.688,0,9.549,4.622,9.549,11.184v54.555c0,6.385-3.254,11.104-9.122,11.104
	c-6.022,0-9.508-4.926-9.508-11.104V124.184z M333.349,91.706v89.025c-2.657,3.328-8.569,8.783-12.821,8.783
	c-4.666,0-5.809-3.186-5.809-7.902V91.706h-21.806v98.029c0,11.586,3.543,20.949,15.232,20.949c6.598,0,15.755-3.433,25.203-14.641
	v12.947h21.806V91.706H333.349z M301.273,332.134c1.48,1.954,2.22,4.815,2.22,8.583v57.672c0,3.561-0.601,6.127-1.798,7.698
	c-2.289,2.996-7.246,2.86-10.625,1.149c-1.589-0.8-3.227-2.11-4.916-3.926v-69.607c1.409-1.533,2.835-2.669,4.281-3.403
	C294.07,328.46,298.762,328.818,301.273,332.134z M371.182,329.604c-7.695,0-9.277,5.415-9.277,13.091v11.307h18.347v-11.307
	C380.251,335.146,378.65,329.604,371.182,329.604z M434.516,412c0,27.614-22.386,50-50,50H127.484c-27.614,0-50-22.386-50-50
	V285.684c0-27.615,22.386-50,50-50h257.031c27.614,0,50,22.385,50,50V412z M161.734,295.128h24.195V273.15h-71.778v21.978h24.195
	v129.44h23.388V295.128z M244.924,312.871h-20.768v84.785c-2.534,3.174-8.163,8.365-12.211,8.365c-4.442,0-5.531-3.033-5.531-7.527
	v-85.623h-20.768v93.359c0,22.664,15.367,22.803,26.561,16.391c4.141-2.376,8.121-5.839,11.949-10.383v12.33h20.768V312.871z
	 M324.866,339.459c0-15.15-5.037-27.999-20.247-27.999c-7.416,0-13.779,4.727-18.465,10.437V273.15h-20.97v151.418h20.97v-8.586
	c5.789,7.219,12.121,9.998,19.725,9.998c13.818,0,18.987-10.733,18.987-24.555V339.459z M401.624,342.901
	c0-20.188-9.627-32.853-29.55-32.853c-18.734,0-31.543,13.463-31.543,32.853v50.136c0,20.107,10.141,34.557,29.971,34.557
	c21.884,0,31.122-13.034,31.122-34.557v-8.39h-21.373v7.763c0,9.725-0.511,15.625-9.277,15.625c-8.361,0-9.069-7.246-9.069-15.625
	v-21.071h39.72V342.901z"/>
</svg>
